<?xml version="1.0" standalone="no"?>
<!DOCTYPE svg PUBLIC "-//W3C//DTD SVG 20010904//EN"
 "http://www.w3.org/TR/2001/REC-SVG-20010904/DTD/svg10.dtd">
<svg version="1.0" xmlns="http://www.w3.org/2000/svg"
 width="728.000000pt" height="455.000000pt" viewBox="0 0 728.000000 455.000000"
 preserveAspectRatio="xMidYMid meet">

<g transform="translate(0.000000,455.000000) scale(0.100000,-0.100000)"
fill="#000000" stroke="none">
<path d="M3640 2894 c-265 -31 -396 -69 -678 -196 -90 -41 -112 -54 -106 -67
14 -35 17 -113 4 -121 -25 -15 -95 -20 -195 -12 -55 5 -105 7 -112 5 -6 -3
-22 -48 -35 -101 -33 -140 -33 -340 1 -429 44 -118 133 -190 270 -219 229 -48
934 27 1276 136 192 62 475 188 571 256 73 51 162 146 182 194 23 56 12 151
-24 202 -83 119 -270 218 -560 297 -102 28 -136 35 -224 46 -53 7 -330 14
-370 9z m209 -60 c10 -9 -9 -9 -94 3 l-90 12 90 -6 c50 -3 92 -7 94 -9z m343
-16 c35 -24 76 -77 133 -169 49 -79 57 -103 25 -74 -11 10 -20 15 -20 11 0 -7
-19 7 -50 38 -11 11 -20 16 -20 11 0 -14 -82 106 -111 162 -27 53 -27 54 -6
47 12 -4 34 -15 49 -26z m-614 15 c-10 -2 -28 -2 -40 0 -13 2 -5 4 17 4 22 1
32 -1 23 -4z m-75 -10 c-7 -2 -21 -2 -30 0 -10 3 -4 5 12 5 17 0 24 -2 18 -5z
m395 -123 c0 -22 -5 -10 -13 35 -17 88 -17 116 0 50 7 -27 13 -66 13 -85z
m-495 103 c-7 -2 -19 -2 -25 0 -7 3 -2 5 12 5 14 0 19 -2 13 -5z m970 -38 c87
-43 108 -56 53 -35 -20 7 -24 6 -19 -5 3 -8 9 -12 14 -9 5 3 21 -4 35 -15 14
-11 33 -17 42 -14 15 4 15 3 2 -7 -12 -9 -12 -13 -2 -17 10 -4 8 -9 -8 -20
-14 -10 -19 -21 -15 -36 5 -20 4 -19 -10 3 l-16 25 5 -25 5 -25 -16 23 c-26
37 -35 25 -13 -18 31 -60 10 -48 -29 18 -19 31 -52 80 -73 109 -41 57 -48 73
-20 52 15 -13 16 -12 3 3 -7 10 -17 16 -21 13 -4 -3 -13 2 -20 10 -21 25 5 18
103 -30z m-1023 25 c-8 -5 -22 -9 -30 -9 -10 0 -8 3 5 9 27 12 43 12 25 0z
m697 -22 c-3 -8 -6 -5 -6 6 -1 11 2 17 5 13 3 -3 4 -12 1 -19z m-757 2 c0 -5
-10 -10 -22 -9 -22 0 -22 1 -3 9 11 5 21 9 23 9 1 1 2 -3 2 -9z m-85 -30 c-3
-5 -11 -10 -16 -10 -6 0 -7 5 -4 10 3 6 11 10 16 10 6 0 7 -4 4 -10z m-38 -16
c-3 -3 -12 -4 -19 -1 -8 3 -5 6 6 6 11 1 17 -2 13 -5z m880 -46 c-3 -8 -6 -5
-6 6 -1 11 2 17 5 13 3 -3 4 -12 1 -19z m10 -50 c-3 -8 -6 -5 -6 6 -1 11 2 17
5 13 3 -3 4 -12 1 -19z m113 -24 c0 -2 -9 -4 -20 -4 -11 0 -20 4 -20 9 0 5 9
7 20 4 11 -3 20 -7 20 -9z m-103 -46 c-3 -8 -6 -5 -6 6 -1 11 2 17 5 13 3 -3
4 -12 1 -19z m516 -5 c-24 -2 -62 -2 -85 0 -24 2 -5 4 42 4 47 0 66 -2 43 -4z
m130 -45 c43 -23 87 -88 87 -128 0 -40 -55 -124 -112 -172 -68 -58 -119 -89
-248 -154 -142 -70 -426 -181 -438 -170 -2 3 15 28 39 58 41 51 109 183 109
210 0 7 -15 -21 -33 -62 -33 -76 -120 -204 -146 -215 -31 -13 -248 -56 -378
-75 -159 -23 -496 -50 -625 -50 -162 0 -294 37 -356 101 -41 41 -75 106 -68
125 3 8 2 13 -3 10 -32 -20 -43 248 -17 372 9 40 16 75 16 78 0 14 88 1 121
-18 31 -17 39 -28 39 -50 0 -17 -8 -33 -20 -40 -23 -15 -27 -48 -6 -48 8 0 38
11 68 25 29 14 62 25 73 26 20 0 20 0 0 8 -17 7 -14 10 18 20 21 7 41 19 44
27 3 8 10 11 17 7 7 -4 8 -3 1 3 -5 6 -37 19 -69 29 -56 18 -57 20 -30 26 45
11 972 57 1249 62 419 8 648 6 668 -5z"/>
<path d="M4330 2760 c0 -6 6 -10 14 -10 8 0 22 -7 30 -16 9 -8 16 -11 16 -6 0
5 -6 14 -12 19 -21 16 -48 23 -48 13z"/>
<path d="M4370 2700 c-9 -6 -10 -10 -3 -10 6 0 15 5 18 10 8 12 4 12 -15 0z"/>
<path d="M4167 2390 c5 -151 11 -172 11 -40 0 58 -3 116 -7 130 -4 14 -6 -27
-4 -90z"/>
<path d="M2875 2360 c-3 -6 1 -7 9 -4 18 7 21 14 7 14 -6 0 -13 -4 -16 -10z"/>
<path d="M4156 2209 c-8 -42 0 -50 9 -9 4 17 5 34 2 36 -2 3 -7 -10 -11 -27z"/>
<path d="M2830 2740 c-8 -5 -10 -10 -5 -10 6 0 17 5 25 10 8 5 11 10 5 10 -5
0 -17 -5 -25 -10z"/>
<path d="M2790 2720 c-9 -6 -10 -10 -3 -10 6 0 15 5 18 10 8 12 4 12 -15 0z"/>
<path d="M5925 2705 c-28 -12 -23 -13 65 -13 88 0 93 1 65 13 -16 8 -46 14
-65 14 -19 0 -48 -6 -65 -14z"/>
<path d="M2670 2668 c-186 -88 -214 -99 -258 -104 -26 -3 -56 -9 -67 -14 -11
-4 -40 -13 -65 -18 -43 -9 -43 -10 -11 -11 75 -2 208 40 357 114 157 78 189
102 44 33z"/>
<path d="M6505 2570 c-105 -36 -314 -96 -548 -156 -59 -15 -105 -29 -103 -31
15 -15 734 191 760 217 6 6 8 9 6 9 -3 -1 -54 -19 -115 -39z"/>
<path d="M6455 2529 c-82 -26 -169 -53 -192 -59 -39 -10 -60 -30 -32 -30 6 0
32 -11 58 -24 44 -22 63 -24 263 -29 118 -4 218 -4 221 -1 15 15 -131 195
-156 193 -7 -1 -79 -23 -162 -50z"/>
<path d="M1980 2541 c0 -5 -10 -11 -22 -14 -13 -2 -2 -4 25 -4 47 0 61 9 31
21 -22 9 -34 7 -34 -3z"/>
<path d="M1883 2523 c9 -2 23 -2 30 0 6 3 -1 5 -18 5 -16 0 -22 -2 -12 -5z"/>
<path d="M1773 2513 c9 -2 23 -2 30 0 6 3 -1 5 -18 5 -16 0 -22 -2 -12 -5z"/>
<path d="M5780 2355 c-274 -62 -440 -293 -440 -613 l0 -89 -37 -7 c-21 -3 -64
-6 -95 -6 l-58 0 1 68 c0 63 17 165 30 187 4 6 10 28 13 49 11 60 45 124 78
147 16 12 27 23 24 26 -2 2 -123 -43 -268 -100 -144 -58 -306 -119 -358 -136
-133 -43 -414 -117 -545 -144 -60 -12 -100 -23 -87 -25 12 -2 22 -8 22 -13 0
-6 10 -8 23 -5 12 3 16 3 9 0 -6 -3 -10 -9 -7 -14 3 -4 -3 -6 -13 -3 -14 3
-22 -4 -32 -27 -13 -32 -31 -46 -90 -67 -160 -59 -361 -76 -805 -70 -369 6
-434 13 -476 53 -15 15 -26 32 -22 37 3 6 1 7 -4 4 -6 -4 -20 8 -31 25 -14 22
-17 35 -10 39 6 4 -3 14 -22 24 -18 9 -52 35 -76 57 -50 46 -81 47 -70 2 12
-48 73 -130 125 -170 29 -21 64 -49 79 -61 l27 -22 -191 -1 -192 0 11 43 c17
71 14 283 -6 356 -69 255 -268 411 -525 411 -226 0 -421 -141 -499 -361 -24
-66 -27 -89 -27 -209 -1 -74 3 -161 7 -192 l8 -58 -109 0 c-179 0 -167 -8
-191 129 -44 241 -45 241 -119 224 -54 -12 -266 -66 -270 -69 -1 -1 -5 -26 -7
-55 -2 -30 -12 -81 -22 -114 -18 -57 -21 -60 -47 -57 -24 3 -28 1 -22 -13 3
-9 6 -19 6 -21 0 -2 6 -4 14 -4 8 0 31 -9 51 -21 24 -14 77 -27 163 -39 79
-11 110 -18 82 -19 -69 -2 -307 -39 -330 -51 -55 -29 5 -47 250 -75 225 -25
749 -36 1360 -29 305 3 1423 10 2485 14 1900 8 2004 10 2074 41 21 9 22 12 10
23 -15 15 -150 64 -214 78 -22 4 -47 10 -55 12 -8 3 -30 5 -48 5 -21 1 -31 5
-27 12 4 6 13 8 20 5 7 -2 17 6 24 20 8 19 18 24 46 24 33 0 36 -2 30 -22 -7
-20 -5 -21 46 -15 38 5 63 15 92 38 22 18 59 36 83 41 50 11 71 34 123 133 18
33 36 64 42 69 16 17 10 23 -18 18 -23 -4 -25 -2 -20 17 6 25 1 25 -33 6 -35
-20 -47 -18 -24 3 20 17 25 31 28 69 0 11 4 19 7 17 4 -2 9 6 12 18 4 12 2 25
-3 28 -6 4 8 16 30 29 67 38 54 42 -22 6 -77 -35 -252 -95 -278 -95 -10 0 -20
23 -32 73 -61 251 -248 408 -505 422 -58 3 -110 0 -153 -10z m80 -362 c-6 -28
-20 -63 -31 -77 -18 -23 -28 -26 -83 -26 -36 0 -89 9 -126 21 -34 11 -69 18
-76 15 -16 -6 -18 3 -5 23 7 11 13 12 23 4 7 -6 42 -19 78 -28 69 -18 140 -16
165 5 21 17 42 100 49 185 7 93 9 94 14 5 2 -41 -2 -98 -8 -127z m84 97 c8
-111 29 -157 79 -174 32 -12 155 6 201 29 35 18 36 18 36 2 0 -18 -146 -57
-217 -57 -65 0 -80 9 -101 65 -13 34 -23 235 -12 235 4 0 11 -45 14 -100z
m-4207 -32 c-11 -148 -36 -188 -117 -188 -65 0 -200 42 -200 63 0 4 12 1 28
-7 55 -28 191 -38 219 -15 27 23 42 66 48 135 7 77 11 94 21 94 4 0 4 -37 1
-82z m101 -108 c25 -52 66 -62 172 -44 45 8 85 13 87 10 2 -2 -31 -13 -75 -25
-125 -34 -172 -28 -197 26 -23 47 -39 155 -30 190 7 23 10 16 17 -47 5 -41 17
-91 26 -110z m4288 115 c49 -43 94 -105 75 -105 -5 0 -12 9 -16 19 -8 25 -104
121 -121 121 -7 0 -15 4 -18 9 -14 23 36 -5 80 -44z m-926 -1 c0 -4 -14 -46
-30 -94 -29 -83 -60 -248 -60 -316 0 -30 -2 -32 -47 -38 -201 -26 -662 -71
-668 -64 -2 2 36 34 85 71 48 37 142 118 207 180 117 112 119 113 228 155 61
23 146 57 190 76 84 37 95 40 95 30z m700 -174 c0 -5 -4 -10 -10 -10 -5 0 -10
5 -10 10 0 6 5 10 10 10 6 0 10 -4 10 -10z m380 -10 c0 -14 -7 -20 -22 -20
-12 0 -64 -20 -115 -45 -51 -25 -108 -48 -126 -50 l-32 -5 30 12 c17 7 47 23
66 35 20 13 67 34 105 49 38 14 73 30 79 35 13 13 15 12 15 -11z m-734 1 c5
-5 27 -14 49 -21 67 -21 134 -59 151 -86 24 -35 19 -88 -11 -140 -84 -147 -79
-136 -61 -146 9 -5 14 -13 11 -19 -4 -5 -16 -1 -29 8 l-23 17 32 46 c50 70 78
131 79 173 1 33 -5 44 -34 68 -45 38 -182 92 -192 76 -9 -15 -10 -4 -2 17 7
18 16 20 30 7z m-3776 -5 c0 -3 -4 -8 -10 -11 -5 -3 -10 -1 -10 4 0 6 5 11 10
11 6 0 10 -2 10 -4z m-353 -12 c-3 -3 -12 -4 -19 -1 -8 3 -5 6 6 6 11 1 17 -2
13 -5z m4473 -4 c-19 -13 -30 -13 -30 0 0 6 10 10 23 10 18 0 19 -2 7 -10z
m-3750 -9 c0 -4 -16 -11 -36 -14 -20 -3 -68 -23 -107 -43 -44 -23 -66 -30 -58
-20 33 39 201 104 201 77z m-573 -56 c12 -8 27 -15 32 -15 16 0 64 -20 59 -25
-7 -7 -89 22 -142 49 -27 14 -55 26 -62 26 -7 0 -15 4 -19 10 -7 12 101 -25
132 -45z m248 35 c14 -16 21 -18 28 -8 7 10 8 10 5 0 -5 -18 -8 -18 -48 7 -19
11 -28 21 -19 21 9 0 24 -9 34 -20z m4432 -17 c-3 -10 -5 -4 -5 12 0 17 2 24
5 18 2 -7 2 -21 0 -30z m-4523 8 c-19 -18 -49 -18 -38 0 3 5 9 7 14 4 5 -3 11
-1 15 5 3 5 11 10 17 10 6 0 3 -8 -8 -19z m4096 9 c0 -5 -2 -10 -4 -10 -3 0
-8 5 -11 10 -3 6 -1 10 4 10 6 0 11 -4 11 -10z m-4143 -52 c-3 -8 -6 -5 -6 6
-1 11 2 17 5 13 3 -3 4 -12 1 -19z m193 12 c0 -5 -4 -10 -10 -10 -5 0 -10 5
-10 10 0 6 5 10 10 10 6 0 10 -4 10 -10z m3980 -66 c0 -19 -16 -18 -24 1 -3 8
0 15 6 15 9 0 9 3 0 12 -7 7 -12 19 -12 28 0 8 7 2 15 -14 8 -15 15 -35 15
-42z m50 36 c12 0 20 7 21 18 0 12 2 13 6 3 7 -18 -24 -41 -45 -34 -21 8 -32
24 -25 36 3 5 10 2 15 -7 5 -9 18 -16 28 -16z m-4064 -16 c-4 -9 -9 -15 -11
-12 -3 3 -3 13 1 22 4 9 9 15 11 12 3 -3 3 -13 -1 -22z m-122 0 c3 -8 2 -12
-4 -9 -6 3 -10 10 -10 16 0 14 7 11 14 -7z m27 -1 c13 -16 12 -17 -3 -4 -10 7
-18 15 -18 17 0 8 8 3 21 -13z m63 2 c-4 -8 -11 -15 -16 -15 -6 0 -5 6 2 15 7
8 14 15 16 15 2 0 1 -7 -2 -15z m4148 -17 c-6 -6 -15 -8 -19 -4 -4 4 -1 11 7
16 19 12 27 3 12 -12z m-67 -6 c-3 -3 -11 0 -18 7 -9 10 -8 11 6 5 10 -3 15
-9 12 -12z m-4264 -59 c-9 -16 -10 -15 -11 9 0 14 3 35 8 45 6 15 8 14 10 -9
2 -15 -1 -35 -7 -45z m103 41 c8 -21 -12 -17 -24 6 -8 16 -8 18 4 14 8 -3 17
-12 20 -20z m3806 0 c0 -25 51 -127 77 -153 24 -25 30 -41 14 -41 -14 0 -92
121 -85 132 4 6 2 13 -3 17 -6 3 -14 21 -18 40 -5 23 -4 31 4 27 6 -4 11 -14
11 -22z m-3701 -1 c-7 -8 -15 -10 -18 -6 -4 4 -10 11 -14 14 -4 4 4 7 18 7 21
0 23 -3 14 -15z m2294 10 c-7 -2 -19 -2 -25 0 -7 3 -2 5 12 5 14 0 19 -2 13
-5z m2154 -15 c-3 -8 -6 -5 -6 6 -1 11 2 17 5 13 3 -3 4 -12 1 -19z m-4500 6
c-3 -3 -12 -4 -19 -1 -8 3 -5 6 6 6 11 1 17 -2 13 -5z m143 -25 c0 -11 5 -29
11 -41 6 -11 8 -22 5 -25 -7 -7 -36 60 -36 82 0 9 5 13 10 10 6 -3 10 -15 10
-26z m4715 21 c-3 -5 -12 -10 -18 -10 -7 0 -6 4 3 10 19 12 23 12 15 0z m-677
-72 c33 -35 81 -87 106 -117 41 -49 44 -55 28 -66 -73 -49 -214 -63 -314 -31
-32 10 -58 23 -58 27 0 5 -7 9 -15 9 -23 0 -18 13 17 46 28 26 29 26 15 4 -26
-38 -21 -47 33 -65 86 -28 262 -14 304 25 12 12 -59 100 -106 133 -54 36 -94
35 -147 -4 -24 -17 -39 -24 -34 -16 13 22 97 116 104 117 4 0 34 -28 67 -62z
m651 53 c11 -7 9 -10 -8 -16 -25 -8 -36 -2 -26 14 8 13 15 14 34 2z m70 -25
c-24 -18 -62 -53 -84 -78 -44 -48 -92 -88 -107 -88 -16 0 75 103 105 119 16 9
48 31 70 48 23 18 46 33 51 33 5 0 -11 -15 -35 -34z m-424 -28 c-21 -47 -75
-122 -82 -114 -3 3 13 32 35 66 23 33 44 70 47 81 4 11 9 18 12 15 4 -3 -2
-25 -12 -48z m-4458 25 c7 -10 18 -27 25 -38 10 -19 10 -19 -8 -4 -10 9 -27
19 -36 22 -20 7 -25 37 -7 37 7 0 18 -8 26 -17z m3814 -70 c13 -16 12 -17 -3
-4 -10 7 -18 15 -18 17 0 8 8 3 21 -13z m463 -35 c-4 -7 -3 -8 4 -4 6 3 16 -3
22 -14 6 -11 8 -20 5 -20 -3 0 -7 0 -10 0 -3 0 -4 1 -3 3 1 1 -10 14 -25 29
-17 17 -24 33 -21 43 6 14 8 13 21 -5 8 -11 11 -25 7 -32z m73 -26 c15 -21 14
-24 -5 -42 -12 -11 -24 -16 -27 -11 -3 6 2 14 11 19 14 8 14 13 -8 48 -13 21
-28 46 -32 54 -9 18 38 -35 61 -68z m-407 48 c-6 -4 -10 -9 -8 -11 6 -8 -42
-62 -49 -56 -9 10 48 88 59 81 6 -4 6 -9 -2 -14z m-4209 -63 c-6 -8 -8 -17 -4
-20 3 -4 1 -7 -5 -7 -15 0 -15 13 0 28 16 16 23 15 9 -1z m482 -2 c4 -8 2 -17
-2 -20 -5 -2 -11 4 -14 15 -6 23 8 27 16 5z m-1440 -2 c-7 -2 -19 -2 -25 0 -7
3 -2 5 12 5 14 0 19 -2 13 -5z m792 -33 c3 -5 -1 -10 -10 -10 -9 0 -13 5 -10
10 3 6 8 10 10 10 2 0 7 -4 10 -10z m338 3 c-7 -2 -19 -2 -25 0 -7 3 -2 5 12
5 14 0 19 -2 13 -5z m4187 -26 c41 0 88 6 104 12 36 14 46 7 14 -10 -49 -28
-268 -10 -268 21 0 5 17 2 38 -7 22 -9 66 -16 112 -16z m-4310 3 c0 -5 -2 -10
-4 -10 -3 0 -8 5 -11 10 -3 6 -1 10 4 10 6 0 11 -4 11 -10z m390 6 c0 -3 -4
-8 -10 -11 -5 -3 -10 -1 -10 4 0 6 5 11 10 11 6 0 10 -2 10 -4z"/>
<path d="M1260 2305 c-25 -8 -90 -41 -146 -73 -101 -59 -347 -232 -340 -240
11 -10 117 40 189 90 45 32 124 85 175 120 50 34 92 66 92 70 0 5 4 7 9 4 5
-3 29 5 53 19 48 27 36 31 -32 10z m-194 -128 c-11 -7 -28 -20 -38 -29 -13
-14 -18 -15 -18 -4 0 7 15 21 33 30 37 18 50 20 23 3z"/>
<path d="M3950 1700 c-11 -8 -7 -9 15 -4 37 8 45 14 19 14 -10 0 -26 -5 -34
-10z"/>
<path d="M2630 1660 c8 -5 20 -10 25 -10 6 0 3 5 -5 10 -8 5 -19 10 -25 10 -5
0 -3 -5 5 -10z"/>
</g>
</svg>
