<?xml version="1.0" standalone="no"?>
<!DOCTYPE svg PUBLIC "-//W3C//DTD SVG 20010904//EN"
 "http://www.w3.org/TR/2001/REC-SVG-20010904/DTD/svg10.dtd">
<svg version="1.0" xmlns="http://www.w3.org/2000/svg"
 width="138.000000pt" height="119.000000pt" viewBox="0 0 138.000000 119.000000"
 preserveAspectRatio="xMidYMid meet">

<g transform="translate(0.000000,119.000000) scale(0.100000,-0.100000)"
fill="#000000" stroke="none">
<path d="M360 854 c0 -4 32 -103 71 -221 69 -210 71 -214 97 -211 24 3 29 13
73 153 31 98 50 144 54 133 4 -9 26 -77 49 -150 38 -123 44 -133 68 -136 25
-3 27 2 92 203 37 113 69 212 72 220 5 12 -2 15 -30 15 l-36 0 -47 -150 c-26
-82 -50 -146 -54 -142 -3 4 -26 71 -50 150 -42 134 -45 142 -70 142 -24 0 -28
-8 -74 -152 l-48 -153 -50 153 -49 152 -34 0 c-19 0 -34 -3 -34 -6z"/>
<path d="M987 492 c-24 -26 -21 -49 7 -67 34 -23 66 -5 66 35 0 45 -44 64 -73
32z"/>
</g>
</svg>
